<!DOCTYPE svg PUBLIC "-//W3C//DTD SVG 1.1//EN" "http://www.w3.org/Graphics/SVG/1.1/DTD/svg11.dtd">
<svg width="206.7mm" height="52.56mm" viewBox="0 0 206.7 52.56" xmlns="http://www.w3.org/2000/svg" version="1.1" xmlns:xlink="http://www.w3.org/1999/xlink">
<title>Airfoil plot (clarky-il) CLARK Y AIRFOIL by AirfoilTools.com</title>
<g transform="translate(5.85,29.97070245)"><g transform="scale(1,-1)"><line fill="none" stroke="green" stroke-width="0.1" x1="10" x2="10" y1="-13.81" y2="29.97"></line><line fill="none" stroke="green" stroke-width="0.1" x1="20" x2="20" y1="-13.81" y2="29.97"></line><line fill="none" stroke="green" stroke-width="0.1" x1="30" x2="30" y1="-13.81" y2="29.97"></line><line fill="none" stroke="green" stroke-width="0.1" x1="40" x2="40" y1="-13.81" y2="29.97"></line><line fill="none" stroke="green" stroke-width="0.1" x1="50" x2="50" y1="-13.81" y2="29.97"></line><line fill="none" stroke="green" stroke-width="0.1" x1="60" x2="60" y1="-13.81" y2="29.97"></line><line fill="none" stroke="green" stroke-width="0.1" x1="70" x2="70" y1="-13.81" y2="29.97"></line><line fill="none" stroke="green" stroke-width="0.1" x1="80" x2="80" y1="-13.81" y2="29.97"></line><line fill="none" stroke="green" stroke-width="0.1" x1="90" x2="90" y1="-13.81" y2="29.97"></line><line fill="none" stroke="green" stroke-width="0.1" x1="100" x2="100" y1="-13.81" y2="29.97"></line><line fill="none" stroke="green" stroke-width="0.1" x1="110" x2="110" y1="-13.81" y2="29.97"></line><line fill="none" stroke="green" stroke-width="0.1" x1="120" x2="120" y1="-13.81" y2="29.97"></line><line fill="none" stroke="green" stroke-width="0.1" x1="130" x2="130" y1="-13.81" y2="29.97"></line><line fill="none" stroke="green" stroke-width="0.1" x1="140" x2="140" y1="-13.81" y2="29.97"></line><line fill="none" stroke="green" stroke-width="0.1" x1="150" x2="150" y1="-13.81" y2="29.97"></line><line fill="none" stroke="green" stroke-width="0.1" x1="160" x2="160" y1="-13.81" y2="29.97"></line><line fill="none" stroke="green" stroke-width="0.1" x1="170" x2="170" y1="-13.81" y2="29.97"></line><line fill="none" stroke="green" stroke-width="0.1" x1="180" x2="180" y1="-13.81" y2="29.97"></line><line fill="none" stroke="green" stroke-width="0.1" x1="190" x2="190" y1="-13.81" y2="29.97"></line><line fill="none" stroke="green" stroke-width="0.1" x1="200" x2="200" y1="-13.81" y2="29.97"></line><line fill="none" stroke="green" stroke-width="0.1" x1="-5.85" x2="200.85" y1="10" y2="10"></line><line fill="none" stroke="green" stroke-width="0.1" x1="-5.85" x2="200.85" y1="20" y2="20"></line><line fill="none" stroke="green" stroke-width="0.1" x1="-5.85" x2="200.85" y1="-10" y2="-10"></line>
<path fill="none" stroke="red" stroke-width="0.2" d="M 195 0.16 L 193.05 0.78 L 191.1 1.4 L 189.15 2.02 L 187.2 2.64 L 183.3 3.85 L 179.4 5.03 L 175.5 6.19 L 171.6 7.32 L 167.7 8.42 L 163.8 9.49 L 159.9 10.54 L 156 11.55 L 152.1 12.54 L 148.2 13.49 L 144.3 14.42 L 140.4 15.31 L 136.5 16.17 L 132.6 17 L 128.7 17.8 L 124.8 18.55 L 120.9 19.27 L 117 19.94 L 113.1 20.57 L 109.2 21.15 L 105.3 21.68 L 101.4 22.17 L 97.5 22.61 L 93.6 23 L 89.7 23.34 L 85.8 23.62 L 81.9 23.84 L 78 24 L 74.1 24.09 L 70.2 24.12 L 66.3 24.09 L 62.4 24 L 58.5 23.87 L 54.6 23.69 L 50.7 23.45 L 46.8 23.12 L 42.9 22.68 L 39 22.09 L 35.1 21.34 L 31.2 20.42 L 27.3 19.33 L 23.4 18.06 L 19.5 16.58 L 15.6 14.86 L 11.7 12.84 L 9.75 11.66 L 7.8 10.3 L 5.85 8.69 L 3.9 6.68 L 2.34 4.7 L 1.56 3.62 L 0.78 2.35 L 0.39 1.53 L 0.2 0.98 L 0.1 0.62 L 0 0 L 0.1 -1.23 L 0.2 -1.56 L 0.39 -2.06 L 0.78 -2.77 L 1.56 -3.76 L 2.34 -4.47 L 3.9 -5.34 L 5.85 -5.95 L 7.8 -6.46 L 9.75 -6.86 L 11.7 -7.14 L 15.6 -7.49 L 19.5 -7.73 L 23.4 -7.89 L 27.3 -7.96 L 31.2 -7.96 L 35.1 -7.91 L 39 -7.81 L 42.9 -7.67 L 46.8 -7.51 L 50.7 -7.32 L 54.6 -7.13 L 58.5 -6.93 L 62.4 -6.73 L 66.3 -6.53 L 70.2 -6.34 L 74.1 -6.15 L 78 -5.96 L 81.9 -5.77 L 85.8 -5.57 L 89.7 -5.38 L 93.6 -5.19 L 97.5 -4.99 L 101.4 -4.8 L 105.3 -4.6 L 109.2 -4.41 L 113.1 -4.22 L 117 -4.02 L 120.9 -3.83 L 124.8 -3.64 L 128.7 -3.44 L 132.6 -3.25 L 136.5 -3.06 L 140.4 -2.86 L 144.3 -2.67 L 148.2 -2.48 L 152.1 -2.28 L 156 -2.09 L 159.9 -1.9 L 163.8 -1.7 L 167.7 -1.51 L 171.6 -1.32 L 175.5 -1.12 L 179.4 -0.93 L 183.3 -0.74 L 187.2 -0.54 L 189.15 -0.45 L 191.1 -0.35 L 193.05 -0.25 L 195 -0.16 "></path>
<path fill="none" stroke="blue" stroke-width="0.2" d="M 0 0 L 195 0 "></path>
<line fill="none" stroke="black" stroke-width="0.2" x1="-5.85" x2="200.85" y1="0" y2="0"></line>
<line fill="none" stroke="black" stroke-width="0.2" x1="0" x2="0" y1="-13.81" y2="29.97"></line>
</g>
</g>
<g transform="translate(0,43.7852259)"><g transform="scale(1.95,1.95)"><text fill="rgb(48,48,144)" font-size="1.8" style="font-family:Arial,Helvetica,sans-serif;" x="1" y="2">Name = CLARK Y AIRFOIL</text><text fill="rgb(48,48,144)" font-size="1.8" style="font-family:Arial,Helvetica,sans-serif;" x="1" y="4">Chord = 195mm  Radius = 0mm  Thickness = 135%  Origin = 0%  Pitch = 0&#176; </text></g></g></svg>